# xmcd
#
# Track frame offsets:
#	150
#	10715
#	21813
#	34733
#	44845
#	57250
#	68298
#	78920
#	89348
#	100235
#	115080
#	126420
#	138718
#	149548
#	161690
#	171295
#	192215
#	199888
#	212945
#	223100
#
# Disc length: 3113
#
# Revision: 1
# Processed by: cddbd v1.5.1PL0 Copyright (c) Steve Scherf et al.
# Submitted via: VisiTrax 2.9.5.180 - For more info visit www.synapsa.com
# Normalized: r0:DSETVAR1
#
DISCID=290c2714
DTITLE=Various Artist - Listen to a Country song
DYEAR=1995
DGENRE=
TTITLE0=Jim Reeves - Anna Marie
TTITLE1=Johnny Russell - Today I started loving you again
TTITLE2=George Jones - Don't be angry
TTITLE3=Freddy Fender - Before the next teardrop falls
TTITLE4=Ernest Tubb - Thanks a lot
TTITLE5=George Jones - Once a day
TTITLE6=Wanda Jackson - It's only make believe
TTITLE7=Boxcar Willie - T for Texas
TTITLE8=Ferlin Husky - She called me baby
TTITLE9=Jimmie Rodgers - Shovelin' coal Missouri
TTITLE10=Roy Drusky - I can't help it
TTITLE11=Buddy Owens - How can I tell my dreams
TTITLE12=Faron Young - A satisfied mind
TTITLE13=Wynn Stewart - Wishful thinking
TTITLE14=Jerry Wallace - In a cotton candy world
TTITLE15=Red Sovine - Daddy
TTITLE16=Jim Reeves - Blue bly
TTITLE17=George Jones - Sweeter than the flowers
TTITLE18=Johnny Russell - Making plans
TTITLE19=Johnny Preston - I'm starting to go steady with the blues
EXTD=
EXTT0=
EXTT1=
EXTT2=
EXTT3=
EXTT4=
EXTT5=
EXTT6=
EXTT7=
EXTT8=
EXTT9=
EXTT10=
EXTT11=
EXTT12=
EXTT13=
EXTT14=
EXTT15=
EXTT16=
EXTT17=
EXTT18=
EXTT19=
PLAYORDER=
